<?xml version="1.0" encoding="UTF-8" standalone="no"?><!DOCTYPE svg PUBLIC "-//W3C//DTD SVG 1.1//EN" "http://www.w3.org/Graphics/SVG/1.1/DTD/svg11.dtd"><svg width="100%" height="100%" viewBox="0 0 128 128" version="1.1" xmlns="http://www.w3.org/2000/svg" xmlns:xlink="http://www.w3.org/1999/xlink" xml:space="preserve" xmlns:serif="http://www.serif.com/" style="fill-rule:evenodd;clip-rule:evenodd;stroke-linecap:round;stroke-linejoin:round;stroke-miterlimit:1.5;"><path d="M126,16l-0,96c-0,7.727 -6.273,14 -14,14l-96,0c-7.727,0 -14,-6.273 -14,-14l0,-96c0,-7.727 6.273,-14 14,-14l96,0c7.727,0 14,6.273 14,14Z" style="fill:#363d52;stroke:#212532;stroke-width:4px;"/><g><path d="M27.351,120.444l0,-16.165l7.344,-0c1.755,-0 3.302,0.334 4.642,1.004c1.339,0.67 2.386,1.605 3.14,2.806c0.755,1.201 1.132,2.625 1.132,4.272c-0,1.632 -0.377,3.052 -1.132,4.261c-0.754,1.208 -1.801,2.147 -3.14,2.817c-1.34,0.67 -2.887,1.005 -4.642,1.005l-7.344,-0Zm3.741,-3.072l3.418,0c1.078,0 2.013,-0.204 2.806,-0.612c0.793,-0.408 1.409,-0.989 1.847,-1.743c0.439,-0.755 0.659,-1.64 0.659,-2.656c-0,-1.031 -0.22,-1.92 -0.659,-2.667c-0.438,-0.747 -1.054,-1.324 -1.847,-1.732c-0.793,-0.408 -1.728,-0.612 -2.806,-0.612l-3.418,-0l0,10.022Z" style="fill:#fff;fill-rule:nonzero;"/><path d="M49.867,110.791l7.782,-0l0,2.91l-7.782,-0l0,-2.91Zm0.277,6.651l8.799,-0l-0,3.002l-12.517,-0l0,-16.165l12.216,-0l0,3.002l-8.498,-0l0,10.161Z" style="fill:#fff;fill-rule:nonzero;"/><path d="M61.922,120.444l-0,-16.165l3.094,-0l6.882,11.408l-1.64,-0l6.767,-11.408l3.071,-0l0.046,16.165l-3.51,-0l-0.023,-10.785l0.646,0l-5.403,9.076l-1.686,-0l-5.519,-9.076l0.785,0l-0,10.785l-3.51,-0Z" style="fill:#fff;fill-rule:nonzero;"/><path d="M91.827,120.721c-1.278,-0 -2.459,-0.208 -3.545,-0.624c-1.085,-0.415 -2.024,-1 -2.817,-1.755c-0.793,-0.754 -1.409,-1.639 -1.847,-2.655c-0.439,-1.017 -0.659,-2.125 -0.659,-3.326c0,-1.201 0.22,-2.309 0.659,-3.325c0.438,-1.016 1.058,-1.902 1.859,-2.656c0.8,-0.754 1.739,-1.339 2.817,-1.755c1.078,-0.416 2.248,-0.624 3.51,-0.624c1.278,0 2.452,0.208 3.522,0.624c1.07,0.416 2.001,1.001 2.794,1.755c0.793,0.754 1.413,1.636 1.859,2.644c0.447,1.009 0.67,2.121 0.67,3.337c-0,1.201 -0.223,2.313 -0.67,3.337c-0.446,1.024 -1.066,1.909 -1.859,2.656c-0.793,0.746 -1.724,1.328 -2.794,1.743c-1.07,0.416 -2.236,0.624 -3.499,0.624Zm-0.023,-3.187c0.724,-0 1.39,-0.123 1.998,-0.369c0.608,-0.247 1.143,-0.601 1.605,-1.063c0.461,-0.462 0.819,-1.008 1.073,-1.639c0.254,-0.632 0.381,-1.332 0.381,-2.102c0,-0.77 -0.127,-1.47 -0.381,-2.101c-0.254,-0.632 -0.608,-1.178 -1.062,-1.64c-0.454,-0.462 -0.989,-0.816 -1.605,-1.062c-0.616,-0.247 -1.285,-0.37 -2.009,-0.37c-0.723,0 -1.389,0.123 -1.997,0.37c-0.609,0.246 -1.144,0.6 -1.605,1.062c-0.462,0.462 -0.82,1.008 -1.074,1.64c-0.254,0.631 -0.381,1.331 -0.381,2.101c-0,0.755 0.127,1.451 0.381,2.09c0.254,0.639 0.608,1.189 1.062,1.651c0.454,0.462 0.989,0.816 1.605,1.063c0.616,0.246 1.286,0.369 2.009,0.369Z" style="fill:#fff;fill-rule:nonzero;"/><path d="M35.495,14.687c-1.117,0 -2.036,0.919 -2.036,2.036l0,73.298c0,1.117 0.919,2.036 2.036,2.036l57.01,-0c1.117,-0 2.036,-0.919 2.036,-2.036l-0,-50.901l-16.289,-0c-4.467,-0 -8.144,-3.677 -8.144,-8.144l0,-16.289l-34.613,0Zm40.721,0l0,16.289c0,1.117 0.919,2.036 2.036,2.036l16.289,-0c-0.018,-0.515 -0.231,-1.004 -0.595,-1.369l-16.362,-16.361c-0.364,-0.364 -0.853,-0.577 -1.368,-0.595Zm-48.865,2.036c0,-4.467 3.677,-8.144 8.144,-8.144l40.648,0c2.159,0.001 4.231,0.86 5.758,2.386l16.361,16.362c1.527,1.526 2.386,3.599 2.387,5.758l-0,56.936c-0,4.468 -3.677,8.144 -8.144,8.144l-57.01,0c-4.467,0 -8.144,-3.676 -8.144,-8.144l0,-73.298Z" style="fill:#fff;"/><path d="M52.618,82.817c-0.927,-0 -1.789,-0.152 -2.584,-0.455c-0.795,-0.304 -1.485,-0.736 -2.069,-1.296c-0.583,-0.561 -1.038,-1.219 -1.365,-1.975c-0.326,-0.755 -0.489,-1.585 -0.489,-2.489c0,-0.904 0.163,-1.734 0.489,-2.489c0.327,-0.756 0.784,-1.414 1.374,-1.975c0.589,-0.56 1.279,-0.993 2.069,-1.296c0.789,-0.303 1.653,-0.455 2.592,-0.455c1.041,0 1.983,0.181 2.824,0.541c0.841,0.361 1.548,0.89 2.12,1.588l-1.785,1.648c-0.412,-0.469 -0.87,-0.821 -1.374,-1.056c-0.503,-0.234 -1.053,-0.352 -1.648,-0.352c-0.561,0 -1.076,0.092 -1.545,0.275c-0.469,0.183 -0.875,0.446 -1.219,0.79c-0.343,0.343 -0.609,0.749 -0.798,1.219c-0.189,0.469 -0.283,0.99 -0.283,1.562c-0,0.572 0.094,1.093 0.283,1.562c0.189,0.47 0.455,0.876 0.798,1.219c0.344,0.344 0.75,0.607 1.219,0.79c0.469,0.183 0.984,0.275 1.545,0.275c0.595,-0 1.145,-0.118 1.648,-0.352c0.504,-0.235 0.962,-0.593 1.374,-1.073l1.785,1.648c-0.572,0.698 -1.279,1.23 -2.12,1.596c-0.841,0.367 -1.788,0.55 -2.841,0.55Z" style="fill:#fff;fill-rule:nonzero;"/><path d="M63.33,82.817c-0.961,-0 -1.882,-0.129 -2.764,-0.387c-0.881,-0.257 -1.59,-0.592 -2.128,-1.004l0.944,-2.094c0.515,0.366 1.124,0.666 1.828,0.901c0.704,0.235 1.417,0.352 2.138,0.352c0.549,-0 0.992,-0.054 1.33,-0.163c0.338,-0.109 0.587,-0.261 0.747,-0.455c0.16,-0.195 0.24,-0.418 0.24,-0.67c0,-0.32 -0.126,-0.575 -0.377,-0.764c-0.252,-0.188 -0.584,-0.343 -0.996,-0.463c-0.412,-0.12 -0.867,-0.235 -1.365,-0.344c-0.498,-0.108 -0.996,-0.243 -1.494,-0.403c-0.497,-0.16 -0.952,-0.366 -1.364,-0.618c-0.412,-0.252 -0.747,-0.584 -1.005,-0.996c-0.257,-0.412 -0.386,-0.938 -0.386,-1.579c-0,-0.687 0.186,-1.314 0.558,-1.88c0.372,-0.567 0.933,-1.019 1.682,-1.356c0.75,-0.338 1.691,-0.507 2.824,-0.507c0.756,0 1.5,0.089 2.232,0.266c0.733,0.178 1.379,0.444 1.94,0.799l-0.858,2.111c-0.561,-0.32 -1.122,-0.558 -1.683,-0.712c-0.56,-0.155 -1.11,-0.232 -1.648,-0.232c-0.538,0 -0.978,0.063 -1.322,0.189c-0.343,0.126 -0.589,0.289 -0.738,0.489c-0.149,0.2 -0.223,0.432 -0.223,0.695c0,0.31 0.126,0.558 0.378,0.747c0.251,0.189 0.583,0.341 0.995,0.455c0.412,0.115 0.867,0.229 1.365,0.344c0.498,0.114 0.996,0.246 1.494,0.394c0.498,0.149 0.953,0.35 1.365,0.601c0.412,0.252 0.746,0.584 1.004,0.996c0.258,0.412 0.386,0.933 0.386,1.562c0,0.676 -0.189,1.294 -0.566,1.854c-0.378,0.561 -0.942,1.013 -1.691,1.357c-0.75,0.343 -1.697,0.515 -2.842,0.515Z" style="fill:#fff;fill-rule:nonzero;"/><path d="M73.94,82.611l-5.185,-12.018l3.005,0l4.532,10.644l-1.768,0l4.601,-10.644l2.764,0l-5.202,12.018l-2.747,-0Z" style="fill:#fff;fill-rule:nonzero;"/></g></svg>